<svg viewBox="0 0 320 86.3402265353029" height="86.3402265353029" width="320" style="width: 320px; height: 86.3402px; position: absolute; top: 50%; left: 50%; transform: translate(-50%, -50%) scale(1.5161); z-index: 0; cursor: pointer;"><defs id="SvgjsDefs1065"></defs><g id="SvgjsG1066" featurekey="symbolFeature-0" transform="matrix(1.0146125555038452,0,0,1.0146125555038452,-0.5071444136817576,-9.426280426689686)" fill="#aa96da"><g xmlns="http://www.w3.org/2000/svg"><path d="M26.21,92.168l13.429-4.4l7.997-13.37C40.466,80.339,32.642,86.824,26.21,92.168L26.21,92.168z M36.454,62.986l6.032-5.279   L32.226,13.173l-5.269,37.935L36.454,62.986L36.454,62.986z M43.234,57.051l2.234-1.957c0.071-0.062,0.456-0.168,0.55-0.15   l11.338,2.044l3.531-7.285L32.949,12.409L43.234,57.051L43.234,57.051z M56.761,58.217l-7.124-1.285l6.456,2.664L56.761,58.217   L56.761,58.217z M45.117,57.148l-1.623,1.422c-0.051,0.107-0.144,0.185-0.255,0.222l-5.965,5.223l2.006,2.51L45.117,57.148   L45.117,57.148z M14.843,45.839l5.087-0.731L12.897,43.5L4.502,54.387l9.84-8.376C14.43,45.944,14.495,45.889,14.843,45.839   L14.843,45.839z M21.051,45.828c-0.024,0.006-5.854,0.845-5.854,0.845s8.104,43.903,8.366,45.094l14.915-24.138L21.051,45.828   L21.051,45.828z M47.21,57.351l2.444,13.668l10.199-8.446L47.21,57.351L47.21,57.351z M48.877,71.661L46.368,57.63L25.622,90.943   C32.641,85.114,41.263,77.969,48.877,71.661L48.877,71.661z M4.679,55.388l8.922-3.774c0.43-0.182,0.826,0.035,0.905,0.491   l6.795,37.315c0.469-0.124,0.538-0.137,0.824-0.222L14.39,47.122L4.679,55.388L4.679,55.388z M57.311,60.098l3.69,1.524   l6.831-5.655c0.244-0.202,0.677-0.177,0.896,0.053l4.386,4.596l4.675-42.769L57.311,60.098L57.311,60.098z M19.385,87.76   l-0.801-4.597l-1.457,1.632L19.385,87.76L19.385,87.76z M96.383,86.909L68.198,57.371l-17.995,14.9L96.383,86.909L96.383,86.909z    M40.709,87.688l54.357-0.278L49.512,72.972L40.709,87.688L40.709,87.688z M98.28,88.709l-58.188,0.296l-16.331,5.35   c-0.634,0.158-0.953-0.299-1.044-0.618c-0.252-0.901-0.602-2.094-0.838-3.011c-0.586,0.171-1.447,0.495-1.993-0.136l-4.135-5.431   c-0.246-0.364-0.404-0.567,0.154-1.265c0.908-0.952,1.828-1.872,2.386-2.404l-4.939-28.346L1.479,58.169   c-0.765,0.325-1.285-0.347-0.777-1.007l11.41-14.797c0.2-0.271,0.395-0.288,0.667-0.24l8.337,1.906   c0.231,0.078,0.338,0.194,0.366,0.23l4.343,5.431l5.521-39.741c0.101-0.727,0.736-0.892,1.178-0.303l29.009,38.723l16.729-34.52   c0.385-0.789,1.343-0.512,1.247,0.359l-5.21,47.647l24.555,25.734C99.342,88.104,98.885,88.695,98.28,88.709L98.28,88.709z"></path></g></g><g id="SvgjsG1067" featurekey="nameFeature-0" transform="matrix(1.1136479377746582,0,0,1.1136479377746582,119.9565682221532,13.905725747195659)" fill="#aa96da"><path d="M17.715 12.050999999999998 l-17.676 27.949 l5.0195 0 l4.1211 -6.5234 l9.4922 0 l0 6.5234 l4.2578 0 l0 -27.949 l-5.2148 0 z M18.672 18.477 l0 10.762 l-6.8164 0 z M31.7187625 23.984 l0 -7.6953 l6.0742 0 c1.0547 0 1.9596 0.3776 2.7148 1.1328 c0.74219 0.75521 1.1133 1.6667 1.1133 2.7344 c0 1.0547 -0.37109 1.9531 -1.1133 2.6953 c-0.75521 0.75521 -1.6602 1.1328 -2.7148 1.1328 l-6.0742 0 z M40.956562500000004 27.578 c1.4583 -0.625 2.6367 -1.6015 3.5352 -2.9297 c0.92447 -1.3542 1.3867 -2.8516 1.3867 -4.4922 c0 -2.2396 -0.79428 -4.1471 -2.3828 -5.7227 c-1.5755 -1.5885 -3.4766 -2.3828 -5.7031 -2.3828 l-10.313 0 l0 27.949 l4.2383 0 l0 -11.777 l4.7852 0 l6.1133 11.777 l4.7852 0 z M48.8281375 12.050999999999998 l0 4.2383 l5.918 0 l0 23.711 l4.2578 0 l0 -23.711 l5.918 0 l0 -4.2383 l-16.094 0 z M82.94919375 23.984 l6.0742 0.000019073 c1.0547 0 1.9596 -0.3776 2.7148 -1.1328 c0.74219 -0.74219 1.1133 -1.6406 1.1133 -2.6953 c0 -1.0677 -0.37109 -1.9791 -1.1133 -2.7344 c-0.75521 -0.75521 -1.6602 -1.1328 -2.7148 -1.1328 l-6.0742 0 l0 7.6953 z M82.94919375 40.000019073 l-4.2383 -0.000019073 l0 -27.949 l10.313 0 c2.2266 0 4.1275 0.79428 5.7031 2.3828 c1.5885 1.5755 2.3828 3.483 2.3828 5.7227 c0 2.2266 -0.79428 4.1275 -2.3828 5.7031 c-1.5755 1.5755 -3.4766 2.3633 -5.7031 2.3633 l-6.0742 0 l0 11.777 z M106.23049375 18.945 c-1.9531 1.9531 -2.9297 4.31 -2.9297 7.0703 s0.97656 5.1172 2.9297 7.0703 s4.31 2.9297 7.0703 2.9297 s5.1172 -0.97656 7.0703 -2.9297 s2.9297 -4.31 2.9297 -7.0703 s-0.97656 -5.1172 -2.9297 -7.0703 s-4.31 -2.9297 -7.0703 -2.9297 s-5.1172 0.97656 -7.0703 2.9297 z M103.22269375 36.0937 c-2.7865 -2.7865 -4.1797 -6.1459 -4.1797 -10.078 s1.3932 -7.2916 4.1797 -10.078 s6.1459 -4.1797 10.078 -4.1797 s7.2916 1.3932 10.078 4.1797 s4.1797 6.1459 4.1797 10.078 s-1.3932 7.2916 -4.1797 10.078 s-6.1459 4.1797 -10.078 4.1797 s-7.2916 -1.3932 -10.078 -4.1797 z M135.11719375 12.09 l-4.2383 0 l0 27.91 l4.2383 0 l0 -27.91 z M155.84034375 12.050999999999998 l0 19.98 l-11.934 -19.98 l-4.4336 0 l0 27.949 l4.2383 0 l0 -19.98 l11.953 19.98 l4.4336 0 l0 -27.949 l-4.2578 0 z M163.53516875 12.050999999999998 l0 4.2383 l5.918 0 l0 23.711 l4.2578 0 l0 -23.711 l5.918 0 l0 -4.2383 l-16.094 0 z"></path></g></svg>
