<?xml version="1.0" encoding="UTF-8" standalone="no"?>
<!-- Created with Inkscape (http://www.inkscape.org/) -->

<svg
   version="1.1"
   id="svg929"
   width="100"
   height="86.340218"
   xmlns:inkscape="http://www.inkscape.org/namespaces/inkscape"
   xmlns:sodipodi="http://sodipodi.sourceforge.net/DTD/sodipodi-0.dtd"
   xmlns="http://www.w3.org/2000/svg"
   xmlns:svg="http://www.w3.org/2000/svg">
  <defs
     id="defs933" />
  <sodipodi:namedview
     id="namedview931"
     pagecolor="#ffffff"
     bordercolor="#666666"
     borderopacity="1.0"
     inkscape:pageshadow="2"
     inkscape:pageopacity="0.0"
     inkscape:pagecheckerboard="0" />
  <inkscape:clipboard
     style="font-variation-settings:normal;opacity:1;vector-effect:none;fill:#aa96da;fill-opacity:1;stroke-width:1;stroke-linecap:butt;stroke-linejoin:miter;stroke-miterlimit:4;stroke-dasharray:none;stroke-dashoffset:0;stroke-opacity:1;-inkscape-stroke:none;stop-color:#000000;stop-opacity:1"
     min="0.6928804,0.5136651"
     max="100.69288,86.853885"
     geom-min="0.6928804,0.5136651"
     geom-max="100.69288,86.853885" />
  <g
     id="g935"
     transform="translate(-0.6928804,-0.5136651)">
    <g
       id="g360"
       transform="translate(0.69288033,0.51365731)">
      <g
         id="SvgjsG1066-3"
         featurekey="symbolFeature-0"
         transform="matrix(1.0146126,0,0,1.0146126,-0.50714441,-9.4262804)"
         fill="#9400ff">
        <g
           id="g57">
          <path
             d="m 26.21,92.168 13.429,-4.4 7.997,-13.37 C 40.466,80.339 32.642,86.824 26.21,92.168 Z M 36.454,62.986 42.486,57.707 32.226,13.173 26.957,51.108 Z m 6.78,-5.935 2.234,-1.957 c 0.071,-0.062 0.456,-0.168 0.55,-0.15 l 11.338,2.044 3.531,-7.285 -27.938,-37.294 z m 13.527,1.166 -7.124,-1.285 6.456,2.664 z M 45.117,57.148 43.494,58.57 c -0.051,0.107 -0.144,0.185 -0.255,0.222 l -5.965,5.223 2.006,2.51 z M 14.843,45.839 19.93,45.108 12.897,43.5 4.502,54.387 l 9.84,-8.376 c 0.088,-0.067 0.153,-0.122 0.501,-0.172 z m 6.208,-0.011 c -0.024,0.006 -5.854,0.845 -5.854,0.845 0,0 8.104,43.903 8.366,45.094 L 38.478,67.629 Z M 47.21,57.351 49.654,71.019 59.853,62.573 Z M 48.877,71.661 46.368,57.63 25.622,90.943 C 32.641,85.114 41.263,77.969 48.877,71.661 Z M 4.679,55.388 13.601,51.614 c 0.43,-0.182 0.826,0.035 0.905,0.491 l 6.795,37.315 c 0.469,-0.124 0.538,-0.137 0.824,-0.222 L 14.39,47.122 Z m 52.632,4.71 3.69,1.524 6.831,-5.655 c 0.244,-0.202 0.677,-0.177 0.896,0.053 l 4.386,4.596 4.675,-42.769 z M 19.385,87.76 18.584,83.163 17.127,84.795 Z M 96.383,86.909 68.198,57.371 50.203,72.271 Z M 40.709,87.688 95.066,87.41 49.512,72.972 Z m 57.571,1.021 -58.188,0.296 -16.331,5.35 c -0.634,0.158 -0.953,-0.299 -1.044,-0.618 -0.252,-0.901 -0.602,-2.094 -0.838,-3.011 -0.586,0.171 -1.447,0.495 -1.993,-0.136 l -4.135,-5.431 c -0.246,-0.364 -0.404,-0.567 0.154,-1.265 0.908,-0.952 1.828,-1.872 2.386,-2.404 L 13.352,53.144 1.479,58.169 C 0.714,58.494 0.194,57.822 0.702,57.162 l 11.41,-14.797 c 0.2,-0.271 0.395,-0.288 0.667,-0.24 l 8.337,1.906 c 0.231,0.078 0.338,0.194 0.366,0.23 l 4.343,5.431 5.521,-39.741 c 0.101,-0.727 0.736,-0.892 1.178,-0.303 l 29.009,38.723 16.729,-34.52 c 0.385,-0.789 1.343,-0.512 1.247,0.359 l -5.21,47.647 24.555,25.734 c 0.488,0.513 0.031,1.104 -0.574,1.118 z"
             id="path55" />
        </g>
      </g>
    </g>
  </g>
</svg>
